<?xml version="1.0" encoding="UTF-8"?>
<svg id="Layer_1" data-name="Layer 1" xmlns="http://www.w3.org/2000/svg" viewBox="0 0 1334.2 539.02">
  <path d="m446,211.99c-27.11-.18-44.7,11.84-54,35.9-13.31-7.25-11.99-32.09-4.98-43.08,8.19-12.84,20.86-18.24,35.03-20.14,11.09-1.49,22.39-1.72,33.6-1.81,4.19-.04,6.47-.87,8.62-4.66,26.07-45.95,54.07-90.68,85.96-132.86,11.58-15.31,23.68-30.24,35.54-45.34.62.32,1.24.63,1.86.95-2.06,10.65-4.27,21.27-6.13,31.95-1.81,10.35-4.01,20.7-4.68,31.15-.81,12.62-6.93,22.37-13.49,32.53-18.15,28.12-35.63,56.67-53.36,85.07-.63,1.01-1.1,2.14-1.68,3.29,30.13,4.57,56.84-3.23,66.12-36.5,18.08,15.69,13.33,50.23-9.06,60.35-8.67,3.92-18.72,5.96-28.27,6.48-13.09.71-26.31-.69-39.45-1.51-4.27-.27-6.64,1.13-8.62,4.91-21.94,41.73-44.77,83.01-65.72,125.23-8.19,16.5-8.28,35.58-5.82,53.93,1.1,8.25,8.82,12.9,19.27,14.05,16.19,1.77,29.67-5,42.23-13.81,21.39-14.99,39.74-33.2,54.92-54.5,1.37-1.93,2.58-4.26,2.97-6.56,7.11-40.89,28.57-73.8,56.95-102.9,17.18-17.62,35.18-34.46,59.19-41.95,10.7-3.34,22.58-4.84,33.77-4.23,22.17,1.22,36.68,17.41,39.86,41.72.66,5.07,1.12,10.16,1.86,16.92,14.38-5.5,28.35-10.32,41.83-16.27,5.08-2.24,13.5-1.78,14.11-9.48.89-11.18-.71-22.14-10.72-29.67-2.12-1.59-4.44-2.91-6.67-4.36,16.06-.46,33.95,6.25,44.56,26.62,3.52-1,7.15-2.38,10.91-3.01,3.8-.64,7.79-.23,11.59-.88,2.23-.39,4.43-1.71,6.36-3.03,15.16-10.33,31.24-18.31,49.97-19.15,32.45-1.47,50.86,15.26,53.53,47.77,3.57,43.5-10.97,81.27-36.29,115.53-15.6,21.11-33.13,40.52-54.75,55.77-12.72,8.97-26.6,15.52-42.3,17.26-24.36,2.7-44.9-2.58-56.02-29.12-26.86,49.89-54.71,97.58-87.64,142.54.44-3.59,1.39-7.21,1.24-10.78-.64-15.55-1.77-31.07-2.33-46.62-.14-3.84.12-8.39,2.01-11.51,39.66-65.5,74.64-133.45,106.85-202.85,3.02-6.5,4.68-13.62,6.97-20.46-.52-.48-1.04-.95-1.57-1.43-14.2,5.57-28.26,11.55-42.65,16.56-7.53,2.62-10.67,6.59-12.06,14.7-6.7,39.22-28.11,70.85-53.8,99.99-15.13,17.17-31.92,32.23-52.96,42.16-15.23,7.19-31.32,8.2-47.32,6.23-19.4-2.39-31.93-17.82-35.27-40.52-.78-5.28-1.23-10.61-1.83-15.94-11.11,10.33-21.72,21.02-33.21,30.67-14.64,12.31-30.1,24.14-49.71,26.68-10.73,1.39-22.16,1.19-32.73-.97-19.8-4.04-30.66-18.54-32.44-39.23-1.88-21.78,3.11-42.57,11.18-62.22,13.99-34.07,29.65-67.45,44.63-101.12,1.1-2.41,2.29-4.78,4.04-8.44Zm462.35,20.87c-.37-2.99-.57-7.67-1.59-12.16-3.03-13.23-10.78-18.22-24.21-15.85-11.81,2.09-21.16,8.79-29.45,16.85-29.14,28.33-48.63,62.72-61.78,100.83-6.76,19.59-9.68,39.85-7.41,60.6,2.01,18.29,12.56,25.73,30.41,21.89,16.8-3.62,28.42-14.64,38.53-27.48,18.82-23.9,30.49-51.56,41.13-79.72,7.73-20.43,13.23-41.36,14.37-64.96Zm-240.81-28.16c-11.1.64-21.47,7.53-30.29,16.4-31.99,32.19-53.95,70.41-65.55,114.26-4.31,16.3-6.3,33.11-3.47,50.09,2.56,15.32,12.32,23.07,27.46,20.01,7.68-1.55,16.17-4.21,21.92-9.13,10.26-8.78,19.99-18.78,27.69-29.84,18.59-26.67,29.53-57.12,39.87-87.7.42-1.25.26-2.71.38-4.25-13.89-2.31-25.43-8.3-34.57-18.41-9.32-10.31-8.72-22.91.58-32.69,5.88-6.17,11.09-12.96,15.98-18.74Zm23.04,49.3c1.74-12.22,4.02-23.14-.87-35.02-6.56,2.12-12.81,3.91-18.89,6.16-6.13,2.27-6.9,6.94-4.61,12.48,4.36,10.56,13.83,13.34,24.37,16.38Z" fill="#fff"/>
  <path d="m1255.32,215.03c15.33-15.14,33.28-17.67,53.52-15.58-10.29,16.72-20.34,32.52-29.87,48.64-23.42,39.58-45.27,79.95-58.74,124.21-2.24,7.36-3.3,15.34-3.35,23.04-.09,13.06,8.48,18.78,19.89,12.36,9.82-5.52,19.79-12.45,26.73-21.13,19.49-24.38,37.46-49.99,56.01-75.12.87-1.18,1.3-3.1,2.41-3.59,2.58-1.12,5.98-2.86,8.08-1.99,3.43,1.42,5.81,5.08,2.89,9.03-22.36,30.19-40.45,63.56-66.88,90.7-8.85,9.09-19.74,15.52-32.74,16.44-21.56,1.52-42.41-4.05-47.88-35.8-9.84,6.57-19.45,13.59-29.64,19.64-12.39,7.35-26.07,10.98-40.56,10.99-27.64.01-44.54-15.23-48-43.18-.45-3.62-.9-7.25-1.5-12.06-8.39,8.97-15.56,17.82-23.94,25.3-11.43,10.2-23.32,20.04-35.88,28.78-11.32,7.88-24.63,8.89-38.08,6.12-19.2-3.96-30.65-18.54-32.7-41.58-2.57-28.95,6.71-55.08,20.46-79.67,7.96-14.24,17.43-27.75,27.23-40.84,16.51-22.03,18.27-46.14,12.22-71.78-.22-.94-.62-1.85-.88-2.78-.05-.19.15-.45.74-2.1,3.76.56,8.14.46,11.9,1.93,13.6,5.31,25.49,13.33,35.44,24.12,4.35,4.71,4.8,8.81.97,14.79-28.14,43.93-52.44,89.87-69.14,139.47-2.94,8.72-4.83,17.97-5.86,27.12-1.92,17.15,9.43,26.42,24.87,19.15,11.24-5.3,22.26-12.78,30.79-21.75,14.76-15.52,27.58-32.9,41.04-49.64,1.6-1.99,2.64-4.75,3.06-7.3,6.81-40.61,27.79-73.59,55.34-103.02,13.43-14.35,28.07-27.24,45.72-36.27,16.97-8.68,34.73-12.95,53.83-9.23,17.6,3.39,27.2,15.13,32.5,32.58Zm-158.51,144.6c.39,6.09.44,12.22,1.23,18.25,2.22,16.84,13.37,24.67,30.05,21.42,16.87-3.28,29.04-13.73,38.98-26.81,25.55-33.64,40.49-72.24,51.17-112.66,4.07-15.42,6.49-31.17,3-47.12-2.48-11.32-9.03-16.01-20.6-15.16-10.7.78-20.22,5.31-27.46,12.63-11.11,11.24-21.94,23.01-31.21,35.78-24.65,33.9-42.43,70.79-45.16,113.67Z" fill="#fff"/>
  <path d="m172.47,269.23c-8.49-7.31-16.6-13.6-23.88-20.73-10.21-9.99-9.97-17.87-.49-28.61,15.34-17.4,33.08-29.51,57.68-28.04,12.98.78,19.74,8.07,16.58,20.76-2.8,11.26-7.38,22.07-11.22,33.22,27.92-1.67,55.7-4.27,76.58-27.38,2.51-2.78,8.15-2.75,13.92-4.5-1.1-8.54-2.46-19.05-3.94-30.51,1.9,0,4.31-.5,6.42.08,17.23,4.76,31.4,14.26,42.75,28.04,2.86,3.48,2.89,6.44.33,10.47-26.91,42.37-50.93,86.26-67.48,133.82-3.75,10.77-6.71,22.01-8.29,33.27-2.71,19.24,9.24,28.24,26.74,19.72,9.91-4.82,19.16-11.83,27.25-19.4,22.45-21.02,39.59-46.4,56.48-71.9,2.13-3.21,4.45-6.58,7.47-8.81,1.57-1.16,5.31-.72,7.22.41,1.1.65,1.46,4.67.56,6.28-14.8,26.52-30.86,52.28-53.61,72.82-11.35,10.25-23.58,19.71-36.27,28.26-11.25,7.58-24.42,8.07-37.51,5.06-18.68-4.29-29.78-18.79-31.68-40.87-2.62-30.56,7.34-57.9,22.44-83.53,8.67-14.71,19.11-28.36,28.72-42.51,6.83-10.07,10.43-21.25,11.64-33.2-.95-.84-1.89-1.67-2.84-2.51-1.63,2.74-2.98,5.69-4.93,8.17-10.89,13.84-25.91,21.25-42.27,26.26-15.17,4.65-30.53,8.69-45.63,13.52-3.25,1.04-6.95,3.73-8.46,6.68-22.98,44.87-54.82,83.14-89.01,119.58-14.85,15.82-32.37,27.89-55.07,28.95-31.56,1.48-49.56-14.84-52.27-46.4-1.36-15.85.81-31.14,5.86-46.18,10.44-31.15,23.51-61.19,41.04-88.92,14.8-23.41,37.34-34.8,67.07-36.1-3.36,3.74-5.6,6.37-7.99,8.85-19.26,20.01-34.31,42.79-42.75,69.28-9.7,30.44-18.51,61.17-27.01,91.97-1.96,7.09-2.09,15.04-1.35,22.43,1.06,10.66,7.25,14.39,18.01,12.75,13.12-2,24.11-8.5,33.18-17.55,35.91-35.86,65.31-76.39,86.01-123Zm1.5-59.27c-4.63,3.45-9.13,6.37-13.11,9.88-4.46,3.94-5.39,11.3-1.83,15.18,5.63,6.12,12.27,10.84,20.61,12.24,5.69-13.52,1.29-25.14-5.67-37.3Z" fill="#fff"/>
  <path d="m356.98,174.21c-20.97-.51-30.89-5.56-39.57-31.25-8.69-25.71-3.88-51.41,5.72-75.92,4.47-11.39,10.99-22.31,18.29-32.16,7.22-9.74,15.78-9.2,24.2-.38,3.19,3.34,6.15,6.99,8.68,10.86,12.23,18.68,29.32,28.75,51.64,30.27,4.81.33,9.69,1.41,14.26,2.97,8.37,2.85,12.05,8.07,9.18,16.31-3.56,10.21-7.95,20.66-14.35,29.23-17.73,23.74-39.31,42.85-69.65,49.02-3.33.68-6.76.85-8.4,1.05Zm-15-57.05c.33,14.82,6.15,26.33,14.55,29.24,9.18,3.17,16.69-.66,23.88-6.35-16.6-.85-29.41-7.77-38.43-22.89Zm29.2-18.32c.62-12.5-4.23-22.35-11.6-24.94-6.18-2.17-17.52,2.17-22.95,9.09,15.49-3.88,27.07.8,34.55,15.85Zm52.36,21.47c-1.51-9.48-1.2-20.08-11.79-23.72-8.85-3.03-16.22,1.91-22.83,7.85,15.4-2.87,27.11,1.66,34.62,15.87Z" fill="#fff"/>
  <path d="m1003.94,119.36c1.33-28.25,6.74-52.39,20.1-74.16,13.85-22.56,25.32-22.96,40.28-1.14,9.92,14.48,22,25.52,39.46,29.43,6.4,1.43,13.06,1.65,19.52,2.85,16.98,3.16,21.07,10.21,15.08,26.4-6.91,18.67-20.22,32.67-34.62,45.68-11.54,10.42-24.45,18.9-39.62,22.92-32.06,8.48-48.04-1.15-56.93-31.77-2.17-7.44-2.53-15.38-3.27-20.21Zm28.93-1.39c1.04,16.44,7.33,26.87,16.79,29.17,7.26,1.76,17.05-1.8,21.04-7.86-16.43-.29-29.1-7.18-37.83-21.31Zm29.56-17.84c-.27-15.17-4.95-24.18-12.6-26.44-6.11-1.8-17.64,2.94-21.76,9.07,15-3.32,26.59.8,34.36,17.37Zm51.25,19.94c.73-10.8-3.98-21.1-10.12-23.49-6.88-2.68-18.69,1.47-23.66,8.6,14.79-3.63,26.14.7,33.78,14.89Z" fill="#fff"/>
  <text transform="translate(1076.02 515.99)" fill="#fff" font-family="JosefinSans-SemiBoldItalic, &apos;Josefin Sans&apos;" font-size="80" font-style="italic" font-weight="600"><tspan x="0" y="0">20</tspan><tspan x="97.84" y="0" letter-spacing="0em">2</tspan><tspan x="143.44" y="0">4</tspan></text>
</svg>